<svg xmlns="http://www.w3.org/2000/svg" viewBox="0 0 512 512">
  <rect width="512" height="512" rx="100" fill="#5865F2"/>
  <path d="M368 150c-25-11-51-19-79-23-3 6-7 14-10 20-29-4-58-4-87 0-3-6-7-14-10-20-28 4-54 12-79 23-45 67-58 133-52 198 33 24 64 39 95 48 8-10 15-21 21-33-11-4-22-9-32-15 3-2 5-4 8-6 62 28 129 28 190 0 3 2 5 4 8 6-10 6-21 11-32 15 6 12 13 23 21 33 31-9 63-24 96-48 7-75-12-140-52-198zM215 310c-17 0-31-16-31-35s14-35 31-35c17 0 31 16 31 35s-14 35-31 35zm82 0c-17 0-31-16-31-35s14-35 31-35c17 0 31 16 31 35s-14 35-31 35z" fill="white"/>
</svg>
